<svg width="224" height="224" viewBox="0 0 224 224" xmlns="http://www.w3.org/2000/svg" role="img" aria-labelledby="title desc"> <title id="title">Travelbot Palm Logo</title> <desc id="desc">A stylized palm tree on an island against a sunset globe with ocean waves.</desc> <defs> <radialGradient id="sunset" cx="50%" cy="40%" r="65%"> <stop offset="0%" stop-color="#FFE08A"/> <stop offset="55%" stop-color="#FF9A5A"/> <stop offset="100%" stop-color="#F25A7E"/> </radialGradient> <linearGradient id="sea" x1="0" y1="0" x2="0" y2="1"> <stop offset="0%" stop-color="#4FC3FF"/> <stop offset="100%" stop-color="#0066CC"/> </linearGradient> <clipPath id="badge"> <circle cx="112" cy="112" r="96"/> </clipPath> <filter id="shadow" x="-20%" y="-20%" width="140%" height="140%"> <feDropShadow dx="0" dy="2" stdDeviation="2.5" flood-color="#000000" flood-opacity="0.25"/> </filter> </defs> <!-- Badge background --> <circle cx="112" cy="112" r="96" fill="url(#sunset)"/> <circle cx="112" cy="112" r="96" fill="none" stroke="#FFFFFF" stroke-opacity="0.25" stroke-width="2"/> <!-- Clipped scene --> <g clip-path="url(#badge)"> <!-- Sea --> <rect x="0" y="118" width="224" height="120" fill="url(#sea)"/>
<!-- Waves -->
<g fill="none" stroke="#FFFFFF" stroke-linecap="round">
  <path d="M -10 140 Q 20 132 50 140 T 110 140 T 170 140 T 230 140" stroke-opacity="0.7" stroke-width="2.5"/>
  <path d="M -10 154 Q 18 146 48 154 T 108 154 T 168 154 T 230 154" stroke-opacity="0.55" stroke-width="2"/>
  <path d="M -10 168 Q 16 160 46 168 T 106 168 T 166 168 T 230 168" stroke-opacity="0.4" stroke-width="1.8"/>
</g>

<!-- Island and palm -->
<g filter="url(#shadow)">
  <!-- Island -->
  <ellipse cx="96" cy="164" rx="42" ry="10" fill="#0B2D39" opacity="0.96"/>

  <!-- Palm trunk -->
  <path d="M 90 164 C 98 148, 106 130, 114 112 L 122 114 C 114 132, 106 150, 98 168 Z" fill="#0B2D39"/>

  <!-- Palm leaves -->
  <g fill="#0B2D39">
    <!-- Upper right frond -->
    <path d="M 118 104 C 148 96, 168 100, 186 112 L 178 116 C 160 106, 140 102, 118 110 Z"/>
    <!-- Top frond -->
    <path d="M 118 104 C 130 86, 146 74, 164 72 L 160 80 C 146 84, 132 94, 118 110 Z"/>
    <!-- Upper left frond -->
    <path d="M 118 104 C 100 94, 80 90, 58 96 L 64 102 C 84 98, 100 102, 118 110 Z"/>
    <!-- Lower left frond -->
    <path d="M 118 104 C 98 108, 82 118, 64 130 L 70 132 C 88 122, 102 114, 118 110 Z"/>
    <!-- Lower right frond -->
    <path d="M 118 104 C 132 110, 150 120, 170 134 L 164 136 C 146 124, 132 116, 118 110 Z"/>
  </g>
</g>
</g> </svg>